# xmcd
#
# Track frame offsets: 
#        150
#        5845
#        23700
#        40839
#        59113
#        79828
#        97220
#        115436
#        129984
#        148161
#        167654
#        182719
#        201371
#        217439
#        239427
#        252267
#
# Disc length: 3655 seconds
#
# Revision: 1
# Processed by: cddbd v1.5.2PL0 Copyright (c) Steve Scherf et al.
# Submitted via: ExactAudioCopy v1.0b3
#
DISCID=fa0e4510
DTITLE=Shazam - Bringing The Heat
DYEAR=2000
DGENRE=R&B
TTITLE0=Intro (I Be Shazam)
TTITLE1=Spank Me
TTITLE2=Drop' Um Spread' Um (Feat. Dino Liberochi Of The Group H-Town)
TTITLE3=Champagne, Bubble Bath and Me
TTITLE4=Upside Down Lovin'
TTITLE5=I Got Your Back (Feat. Reggie Of The Group Bang)
TTITLE6=Get Your Freak On (Feat. Deja Aka Cowboy)
TTITLE7=Get Butt Naked
TTITLE8=Lye In My Bed (Feat. G.I. Of The Group H-Town)
TTITLE9=Hard In The Paint (Feat. Seduce 210)
TTITLE10=Want Your Body
TTITLE11=Searching For You
TTITLE12=Really Wanna To Bone
TTITLE13=Upside Down Lovin' (Rap Version)
TTITLE14=Car Hopping
TTITLE15=Outro (The Interview)
EXTD=Shazam album from H Town
EXTT0=
EXTT1=
EXTT2=
EXTT3=
EXTT4=
EXTT5=
EXTT6=
EXTT7=
EXTT8=
EXTT9=
EXTT10=
EXTT11=
EXTT12=
EXTT13=
EXTT14=
EXTT15=
PLAYORDER=
